<svg version="1.0" xmlns="http://www.w3.org/2000/svg" width="2000.000000ptpx" height="1500.000000ptpx" viewBox="0 0 2000.000000 1500.000000" preserveAspectRatio="xMidYMid meet" transform="rotate(0) scale(1, 1)">

<g transform="translate(0.000000,1500.000000) scale(0.100000,-0.100000)" fill="#ffffff" stroke="none">
<path d="M2657 10283 c-2 -5 150 -1252 338 -2773 l341 -2765 757 -3 c687 -2&#10;757 -1 757 14 0 17 666 5434 676 5497 l6 37 -526 0 -526 0 -4 -22 c-3 -13 -84&#10;-853 -181 -1868 -97 -1015 -177 -1852 -178 -1860 -5 -27 -14 53 -212 1900&#10;-108 1004 -198 1831 -200 1838 -3 9 -117 12 -524 12 -286 0 -522 -3 -524 -7z"/>
<path d="M6100 10258 c0 -13 -119 -1257 -265 -2766 -146 -1509 -265 -2745&#10;-265 -2748 0 -2 242 -3 537 -2 l538 3 33 435 c18 239 35 441 37 448 3 9 79 12&#10;334 12 l330 0 5 -32 c5 -31 76 -829 76 -855 0 -10 112 -13 526 -13 l526 0 -6&#10;38 c-3 20 -121 1257 -261 2747 -141 1491 -258 2720 -261 2733 l-4 22 -940 0&#10;-940 0 0 -22z m957 -943 c2 -11 55 -625 118 -1365 63 -740 117 -1364 120&#10;-1387 l6 -43 -255 0 -255 0 5 48 c7 72 204 2719 204 2748 0 22 4 25 28 22 18&#10;-2 28 -9 29 -23z"/>
<path d="M8590 9750 l0 -530 325 0 325 0 0 -2240 0 -2240 555 0 555 0 0 2240&#10;0 2240 330 0 330 0 0 530 0 530 -1210 0 -1210 0 0 -530z"/>
<path d="M11320 7510 l0 -2770 540 0 540 0 2 1378 3 1377 275 -1375 276 -1375&#10;542 -3 542 -2 0 2770 0 2770 -535 0 -535 0 -2 -1317 -3 -1318 -248 1295 c-137&#10;712 -251 1305 -254 1318 l-5 22 -569 0 -569 0 0 -2770z"/>
<path d="M14916 10268 c-3 -7 -122 -1237 -265 -2733 -144 -1496 -264 -2737&#10;-267 -2757 l-6 -38 539 0 539 0 33 438 c18 240 35 443 37 450 3 10 75 12 336&#10;10 l333 -3 11 -125 c6 -69 24 -270 39 -448 l28 -322 525 0 525 0 -5 38 c-3 20&#10;-122 1267 -264 2769 l-259 2733 -938 0 c-741 0 -938 -3 -941 -12z m954 -945&#10;c0 -10 54 -643 120 -1407 66 -765 118 -1391 116 -1393 -2 -2 -115 -2 -252 -1&#10;l-249 3 103 1395 c57 767 105 1401 108 1408 6 20 54 15 54 -5z"/>
</g>
</svg>